<svg width="60" height="60" viewBox="0 0 90 90" fill="none" xmlns="http://www.w3.org/2000/svg">
<rect width="60" height="60" fill="#F5F5F5"/>
<circle cx="45" cy="45" r="45" fill="#738EF1"/>
<path d="M20.7422 53.2344L7.42969 42.6406C7.17969 42.3906 7.05469 42.0938 7.05469 41.75C7.05469 41.4375 7.17969 41.1875 7.42969 41L20.3906 30.6875C20.4844 30.5938 20.6016 30.6094 20.7422 30.7344L23.0859 33.6641C23.1797 33.8516 23.1953 33.9766 23.1328 34.0391L13.5234 41.8203L23.4609 49.8828C23.5703 49.9766 23.5703 50.1016 23.4609 50.2578L21.0703 53.1875C20.9453 53.3125 20.8359 53.3281 20.7422 53.2344ZM33.9609 59H28.5234C28.3984 59 28.3359 58.9219 28.3359 58.7656L28.4297 25.7891C28.4297 25.6641 28.4922 25.6016 28.6172 25.6016H34.4766C34.6016 25.6016 34.7109 25.6641 34.8047 25.7891L39.1875 32.1172L43.5469 25.7891C43.6406 25.6641 43.7578 25.6016 43.8984 25.6016H49.7812C49.9219 25.6016 49.9922 25.6641 49.9922 25.7891L50.0859 58.7656C50.0859 58.9219 50.0234 59 49.8984 59H44.4609C44.3359 59 44.2734 58.9219 44.2734 58.7656L44.2266 34.2734L39.1875 41.5859L34.1953 34.2734L34.1484 58.7656C34.1484 58.9219 34.0859 59 33.9609 59ZM58.7812 59H53.8828C53.7422 59 53.6797 58.9219 53.6953 58.7656L59.6484 25.7891C59.6797 25.6641 59.7578 25.6016 59.8828 25.6016H64.875C65.0312 25.6016 65.0938 25.6641 65.0625 25.7891L59.0156 58.7656C59 58.9219 58.9219 59 58.7812 59ZM84.4922 42.6406L71.2031 53.2344C71.1094 53.3281 71 53.3125 70.875 53.1875L68.4609 50.2578C68.3672 50.1016 68.3672 49.9766 68.4609 49.8828L78.3984 41.8203L68.7891 34.0391C68.7266 33.9766 68.75 33.8516 68.8594 33.6641L71.2031 30.7344C71.3281 30.6094 71.4375 30.5938 71.5312 30.6875L84.4922 41C84.7578 41.1875 84.8906 41.4375 84.8906 41.75C84.8906 42.0781 84.7578 42.375 84.4922 42.6406Z" fill="black"/>
</svg>
